<?xml version="1.0" encoding="UTF-8"?>
<svg id="Layer_1" data-name="Layer 1" xmlns="http://www.w3.org/2000/svg" viewBox="0 0 800 806.29">
  <defs>
    <style>
      .cls-1 {
        fill: #f6f2e7;
      }
    </style>
  </defs>
  <path class="cls-1" d="M383.28,522.73c-124.53,0-197.36-86.17-197.36-193.47,0-130.65,101.74-207.36,197.36-207.36s187.91,69.49,197.91,207.36c2.22,27.8,2.78,68.38,2.22,105.07h-62.82c.56-36.69,0-77.28-2.22-105.63-7.23-100.07-71.16-146.21-135.09-146.21s-135.65,51.7-135.65,146.21c0,72.83,46.7,138.98,135.65,138.98h412.69c2.68-20.5,4.03-41.29,4.03-62.19C800,200.36,697.22,0,402.36,0S0,176.03,0,405.5s127.27,400.79,402.36,400.79c216.84,0,342.34-126.96,382.96-283.56h-402.04ZM377.72,689.51c-46.14,0-92.84-12.23-131.2-33.36l17.79-55.04c35.02,17.79,74.5,28.35,111.74,28.35,49.48,0,105.63-18.35,131.2-73.38h63.93c-29.46,99.51-117.3,133.43-193.47,133.43Z"/>
</svg>