<svg display="block" role="presentation" viewBox="0 0 118 37" xmlns="http://www.w3.org/2000/svg"><path d="M 0 18.543 C 0 8.302 8.302 0 18.543 0 C 28.784 0 37.086 8.302 37.086 18.543 C 37.086 28.784 28.784 37.086 18.543 37.086 C 8.302 37.086 0 28.784 0 18.543 Z" fill="rgb(73, 0, 210)" height="37.08571428571428px" id="zIJdTU6jE" transform="translate(0 -0.045)" width="37.08571428571428px"/><path d="M 13.143 8.468 L 16.857 4.858 L 13.571 1.665 C 11.287 -0.555 7.57 -0.555 5.286 1.665 L 0 6.802 L 3.715 10.412 L 0 14.022 L 3.286 17.215 C 4.428 18.325 5.928 18.88 7.429 18.88 C 8.767 18.884 10.068 18.437 11.121 17.61 L 11.143 17.631 L 16.857 12.078 Z M 15.143 12.078 L 11.143 15.966 L 1.742 6.829 C 2.559 6.219 3.552 5.892 4.572 5.896 C 5.798 5.89 6.977 6.365 7.857 7.219 L 11.143 10.412 L 12.285 9.301 Z M 6.143 2.498 C 7.955 0.738 10.903 0.738 12.714 2.498 L 15.143 4.858 L 11.143 8.745 L 8.714 6.385 C 7.608 5.31 6.137 4.718 4.572 4.718 C 4.315 4.718 4.061 4.734 3.81 4.765 Z M 4.143 16.382 L 1.715 14.022 L 4.572 11.245 L 10.258 16.772 C 8.437 18.132 5.81 18.001 4.143 16.382 Z" fill="rgb(255, 255, 255)" height="18.880028205294572px" id="CrT9u4chQ" transform="translate(10.114 9.395)" width="16.857142870766776px"/><path d="M 5.018 14.049 C 3.558 14.049 2.357 13.806 1.414 13.319 C 0.471 12.817 0 12.172 0 11.381 C 0 10.894 0.144 10.529 0.434 10.286 C 0.737 10.043 1.133 9.921 1.619 9.921 C 2.136 9.921 2.547 10.088 2.851 10.422 C 3.154 10.742 3.36 11.099 3.467 11.495 C 3.573 11.875 3.755 12.232 4.014 12.567 C 4.272 12.886 4.607 13.045 5.017 13.045 C 5.839 13.045 6.249 12.627 6.249 11.791 C 6.249 11.244 6.036 10.81 5.61 10.491 C 5.2 10.172 4.698 9.929 4.105 9.762 C 3.512 9.594 2.919 9.404 2.326 9.191 C 1.748 8.978 1.247 8.621 0.821 8.119 C 0.41 7.617 0.205 6.956 0.205 6.135 C 0.205 5.116 0.654 4.288 1.551 3.649 C 2.448 2.995 3.603 2.669 5.017 2.669 C 6.431 2.669 7.58 2.934 8.462 3.467 C 9.358 3.999 9.807 4.645 9.807 5.405 C 9.807 5.801 9.655 6.135 9.351 6.409 C 9.062 6.667 8.704 6.797 8.279 6.797 C 7.777 6.797 7.382 6.637 7.093 6.318 C 6.815 6.019 6.612 5.66 6.499 5.268 C 6.414 4.886 6.26 4.523 6.044 4.196 C 5.846 3.877 5.572 3.717 5.222 3.717 C 4.889 3.717 4.622 3.847 4.425 4.105 C 4.243 4.364 4.151 4.668 4.151 5.017 C 4.151 5.58 4.348 6.036 4.744 6.386 C 5.154 6.735 5.641 7.002 6.203 7.184 C 6.781 7.367 7.351 7.564 7.914 7.777 C 8.487 7.987 8.992 8.35 9.373 8.826 C 9.785 9.298 9.99 9.921 9.99 10.696 C 9.99 11.67 9.54 12.476 8.644 13.114 C 7.762 13.737 6.553 14.049 5.017 14.049 Z M 20.444 10.24 C 20.611 10.073 20.793 10.027 20.991 10.103 C 21.204 10.164 21.303 10.317 21.287 10.559 C 21.257 11.32 20.816 12.095 19.964 12.886 C 19.113 13.677 18.011 14.072 16.658 14.072 C 15 14.072 13.647 13.54 12.598 12.476 C 11.548 11.411 11.024 10.02 11.024 8.302 C 11.024 6.66 11.571 5.314 12.666 4.265 C 13.776 3.201 15.099 2.669 16.635 2.669 C 18.018 2.669 19.09 2.988 19.85 3.626 C 20.611 4.265 20.991 4.987 20.991 5.793 C 20.991 6.431 20.695 6.903 20.101 7.207 L 15.563 9.762 C 16.186 10.749 17.053 11.244 18.163 11.244 C 18.635 11.244 19.075 11.153 19.486 10.97 C 19.911 10.772 20.231 10.529 20.444 10.24 Z M 16.224 3.786 C 15.768 3.786 15.395 4.014 15.107 4.471 C 14.833 4.926 14.696 5.497 14.696 6.181 C 14.696 7.093 14.811 7.891 15.038 8.576 L 17.159 7.298 C 17.554 7.025 17.753 6.637 17.753 6.135 C 17.753 5.633 17.623 5.116 17.364 4.584 C 17.121 4.052 16.741 3.786 16.225 3.786 Z M 32.263 2.896 C 32.978 2.896 33.441 2.957 33.654 3.079 C 33.867 3.185 33.958 3.375 33.928 3.649 C 33.92 3.846 33.838 4.033 33.7 4.174 C 33.578 4.295 33.449 4.379 33.312 4.425 C 33.123 4.471 32.932 4.517 32.742 4.562 C 32.499 4.607 32.324 4.645 32.217 4.675 C 32.962 5.527 33.335 6.469 33.335 7.503 C 33.335 9.282 32.514 10.59 30.872 11.426 C 31.845 11.639 32.537 11.951 32.948 12.361 C 33.358 12.757 33.563 13.258 33.563 13.867 C 33.563 14.763 32.993 15.494 31.853 16.056 C 30.712 16.634 29.298 16.923 27.611 16.923 C 25.953 16.923 24.638 16.664 23.665 16.147 C 22.707 15.631 22.228 14.893 22.228 13.935 C 22.228 13.54 22.365 13.19 22.638 12.886 C 22.912 12.582 23.3 12.43 23.802 12.43 C 24.258 12.43 24.646 12.605 24.965 12.954 C 25.288 13.286 25.537 13.682 25.695 14.118 C 25.864 14.547 26.112 14.941 26.425 15.281 C 26.759 15.645 27.162 15.828 27.634 15.828 C 28.226 15.843 28.69 15.668 29.025 15.304 C 29.359 14.954 29.526 14.49 29.526 13.913 C 29.526 12.863 29.207 12.247 28.568 12.065 C 28.295 12.092 28.022 12.107 27.748 12.11 C 26.136 12.11 24.806 11.685 23.756 10.833 C 22.722 9.982 22.206 8.88 22.206 7.526 C 22.206 6.082 22.722 4.911 23.756 4.014 C 24.806 3.117 26.151 2.669 27.793 2.669 C 28.219 2.669 28.888 2.707 29.8 2.783 C 30.619 2.854 31.441 2.892 32.263 2.897 Z M 26.014 5.702 C 26.014 6.903 26.25 8.081 26.721 9.237 C 27.193 10.392 27.725 10.97 28.317 10.97 C 28.698 10.97 28.994 10.803 29.207 10.468 C 29.435 10.118 29.549 9.647 29.549 9.054 C 29.549 7.975 29.313 6.827 28.842 5.611 C 28.371 4.394 27.824 3.786 27.2 3.786 C 26.835 3.786 26.546 3.953 26.334 4.288 C 26.12 4.622 26.014 5.094 26.014 5.702 Z M 39.645 14.072 C 38.49 14.072 37.577 13.708 36.908 12.977 C 36.255 12.247 35.928 11.206 35.928 9.853 L 35.928 4.448 L 35.062 4.448 C 34.92 4.451 34.782 4.403 34.674 4.311 C 34.582 4.203 34.533 4.065 34.537 3.923 L 34.537 3.421 C 34.537 3.071 34.712 2.897 35.062 2.897 L 35.494 2.897 C 36.194 2.897 36.794 2.691 37.296 2.281 C 37.798 1.855 38.125 1.293 38.277 0.593 C 38.353 0.198 38.558 0 38.893 0 L 39.417 0 C 39.828 0 40.033 0.198 40.033 0.593 L 40.033 2.897 L 42.382 2.897 C 42.534 2.897 42.656 2.95 42.747 3.056 C 42.854 3.147 42.912 3.281 42.907 3.421 L 42.907 3.923 C 42.909 4.069 42.852 4.209 42.747 4.311 C 42.649 4.404 42.517 4.454 42.382 4.448 L 40.033 4.448 L 40.033 9.921 C 40.033 10.301 40.132 10.605 40.33 10.833 C 40.527 11.046 40.771 11.153 41.059 11.153 C 41.713 11.153 42.215 10.872 42.564 10.308 C 42.671 10.172 42.793 10.096 42.93 10.081 C 43.067 10.05 43.181 10.073 43.272 10.149 C 43.378 10.225 43.431 10.331 43.431 10.468 C 43.431 11.426 43.089 12.27 42.405 13 C 41.736 13.715 40.816 14.072 39.645 14.072 Z M 54.933 11.358 C 54.979 11.722 55.062 12.019 55.184 12.248 C 55.321 12.46 55.45 12.597 55.572 12.658 C 55.709 12.718 55.83 12.795 55.937 12.886 C 56.04 12.969 56.099 13.095 56.097 13.228 C 56.097 13.73 55.237 13.981 53.519 13.981 C 52.819 13.981 52.295 13.897 51.946 13.73 C 51.611 13.563 51.398 13.281 51.307 12.886 C 50.729 13.677 49.764 14.072 48.41 14.072 C 47.133 14.072 46.091 13.776 45.286 13.182 C 44.495 12.589 44.1 11.731 44.1 10.605 C 44.1 9.511 44.495 8.659 45.286 8.051 C 46.077 7.427 47.05 7.116 48.205 7.116 C 49.102 7.116 49.87 7.306 50.509 7.686 L 50.509 7.617 C 50.356 6.112 50.182 5.094 49.984 4.562 C 49.801 4.029 49.437 3.763 48.889 3.763 C 48.54 3.763 48.259 3.923 48.046 4.242 C 47.831 4.564 47.67 4.918 47.567 5.291 C 47.471 5.68 47.283 6.039 47.019 6.34 C 46.746 6.66 46.381 6.819 45.924 6.819 C 45.453 6.819 45.065 6.682 44.761 6.409 C 44.473 6.135 44.328 5.778 44.328 5.337 C 44.328 4.455 44.769 3.794 45.65 3.353 C 46.532 2.897 47.612 2.669 48.889 2.669 C 50.41 2.669 51.664 3.087 52.652 3.923 C 53.656 4.744 54.249 5.862 54.432 7.276 Z M 49.665 12.909 C 50.014 12.909 50.296 12.741 50.509 12.407 C 50.737 12.072 50.851 11.692 50.851 11.267 L 50.76 10.217 C 50.607 8.955 50.136 8.325 49.346 8.325 C 48.996 8.325 48.714 8.469 48.501 8.758 C 48.289 9.031 48.182 9.404 48.182 9.876 C 48.182 10.727 48.312 11.449 48.57 12.042 C 48.844 12.62 49.209 12.909 49.665 12.909 Z M 67.397 11.335 C 67.564 11.532 67.8 11.768 68.104 12.042 C 68.423 12.316 68.667 12.551 68.834 12.749 C 69.001 12.947 69.085 13.137 69.085 13.319 L 69.085 13.41 C 69.085 13.699 68.91 13.844 68.56 13.844 L 63.292 13.844 C 62.957 13.844 62.79 13.692 62.79 13.388 L 62.79 13.296 C 62.79 13.175 62.858 13.045 62.995 12.909 C 63.116 12.786 63.246 12.671 63.383 12.567 C 63.52 12.46 63.573 12.293 63.543 12.065 C 63.527 11.836 63.391 11.571 63.132 11.267 L 61.832 9.693 L 60.373 11.426 C 60.16 11.685 60.046 11.92 60.03 12.134 C 60.015 12.331 60.061 12.483 60.167 12.59 C 60.274 12.695 60.38 12.817 60.487 12.954 C 60.608 13.076 60.669 13.19 60.669 13.296 L 60.669 13.388 C 60.669 13.691 60.494 13.844 60.144 13.844 L 56.747 13.844 C 56.397 13.844 56.222 13.699 56.222 13.41 L 56.222 13.319 C 56.222 13.137 56.313 12.962 56.496 12.795 C 56.678 12.613 56.952 12.384 57.316 12.11 C 57.681 11.836 57.985 11.571 58.229 11.312 L 60.875 8.575 L 58.252 5.428 C 57.986 5.102 57.688 4.804 57.362 4.539 C 57.127 4.341 56.899 4.136 56.678 3.923 C 56.556 3.785 56.491 3.606 56.496 3.421 L 56.496 3.33 C 56.496 3.041 56.67 2.897 57.02 2.897 L 62.311 2.897 C 62.646 2.897 62.813 3.048 62.813 3.353 L 62.813 3.444 C 62.813 3.596 62.737 3.802 62.585 4.06 C 62.448 4.318 62.357 4.531 62.311 4.698 C 62.28 4.866 62.372 5.124 62.585 5.474 L 63.907 7.093 L 65.367 5.474 C 65.611 5.109 65.694 4.843 65.618 4.675 C 65.557 4.493 65.428 4.28 65.23 4.037 C 65.033 3.794 64.934 3.596 64.934 3.444 L 64.934 3.353 C 64.934 3.049 65.109 2.897 65.458 2.897 L 68.332 2.897 C 68.667 2.897 68.834 3.041 68.834 3.33 L 68.834 3.421 C 68.834 3.619 68.766 3.809 68.629 3.991 C 68.492 4.158 68.271 4.386 67.967 4.675 C 67.678 4.964 67.443 5.215 67.26 5.428 L 64.866 8.256 Z" fill="rgb(0, 0, 0)" height="16.922548718054642px" id="d5nacTh_2" stroke-dasharray="0" stroke-linecap="butt" stroke-linejoin="miter" stroke-miterlimit="10" stroke-width="0.67" stroke="rgb(0, 0, 0)" transform="translate(48.399 12.408)" width="69.08461718732559px"/></svg>
