<?xml version="1.0" encoding="UTF-8"?>
<svg id="Layer_1" data-name="Layer 1" xmlns="http://www.w3.org/2000/svg" viewBox="0 0 983.48 318.5">
  <defs>
    <style>
      .cls-1 {
        fill: #f6f2e7;
      }
    </style>
  </defs>
  <path class="cls-1" d="M190.62,194.7h-29.66c0-18.08,0-37.57-1.13-50.84-3.39-45.2-34.18-70.34-64.97-70.34S29.9,98.66,29.9,143.86c0,34.74,22.32,66.38,64.97,66.38h888.37v28.81H94.87C35.27,239.05.24,195.27.24,144.14.24,81.43,49.11,44.99,94.87,44.99s90.11,33.05,95.19,99.15c1.13,12.99,1.13,32.48.56,50.56ZM154.47,254.58h30.51c-12.99,43.78-51.69,63.84-92.65,63.84-21.75,0-43.78-5.37-62.99-16.1l8.76-26.27c16.95,8.19,36.16,13.28,54.52,13.28,25.99,0,50-9.89,61.86-34.74ZM306.72,120.98V53.75h26.83v67.23c0,42.94-31.35,64.4-62.14,64.4s-62.71-21.47-62.71-64.4V53.75h26.55v67.23c0,25.42,17.8,38.13,36.16,38.13s35.31-12.71,35.31-38.13ZM453.04,180.01v-66.95c0-25.7-17.51-38.42-35.31-38.42s-36.16,12.71-36.16,38.42v66.95h-26.55v-66.95c0-43.22,31.35-64.4,62.71-64.4s62.14,21.19,62.14,64.4v66.95h-26.83ZM847.65,117.3c0-38.7,28.81-68.64,68.08-68.64s67.51,29.94,67.51,68.64-28.81,68.08-67.51,68.08-68.08-29.66-68.08-68.08ZM956.69,117.3c0-24.01-17.51-42.09-40.96-42.09s-41.52,18.08-41.52,42.09,17.51,42.09,41.52,42.09,40.96-18.08,40.96-42.09ZM803.02.08v179.93h26.83V.08h-26.83ZM646.53,117.3c0-38.42,29.09-68.36,67.51-68.36s68.36,29.94,68.36,68.36c0,21.19.28,43.22,0,64.12h-24.01v-16.38h-1.69c-6.5,9.32-22.03,19.21-43.78,19.21-38.13,0-66.38-27.68-66.38-66.95ZM755.28,117.3c0-24.29-17.8-41.81-40.96-41.81s-40.68,17.51-40.68,41.81,16.95,42.09,40.11,42.09,41.52-17.8,41.52-42.09ZM495.69,117.3c0-39.83,30.22-68.36,66.95-68.36,16.95,0,31.92,7.06,42.09,20.06h1.13V.08h24.86v117.23c0,39.83-29.66,68.08-67.51,68.08s-67.51-28.81-67.51-68.08ZM605.86,117.3c0-25.14-18.64-43.22-42.94-43.22s-41.81,18.08-41.81,43.22,19.49,43.78,43.22,43.78,41.52-18.64,41.52-43.78Z"/>
</svg>